<svg width="220" height="197" viewBox="0 0 220 197" fill="none" xmlns="http://www.w3.org/2000/svg">
<rect width="220" height="114" fill="#696767"/>
<rect x="74" y="122" width="68" height="53" rx="12" fill="#0E103F"/>
<rect x="61" y="128" width="9" height="40" rx="4.5" fill="#0E103F"/>
<rect x="74.4868" y="146.012" width="3.64132" height="4.44975" transform="rotate(90.1952 74.4868 146.012)" fill="#0E103F"/>
<rect x="146.497" y="146.015" width="3.64132" height="4.48445" transform="rotate(90.1952 146.497 146.015)" fill="#0E103F"/>
<rect x="146" y="128" width="9" height="40" rx="4.5" fill="#0E103F"/>
<path d="M143 178.299C143 188.627 127.554 197 108.5 197C89.4462 197 74 188.627 74 178.299C74 167.971 89.4462 185.189 108.5 185.189C127.554 185.189 143 167.971 143 178.299Z" fill="#0E103F"/>
<rect x="103" y="175" width="10" height="11" fill="#0E103F"/>
</svg>
